<?xml version="1.0" encoding="UTF-8" standalone="no"?>
<svg width="256.6mm" height="78.8mm"
 viewBox="0 0 5132 1576"
 xmlns="http://www.w3.org/2000/svg" xmlns:xlink="http://www.w3.org/1999/xlink"  version="1.2" baseProfile="tiny">
<title>Proteus Design Suite SVG export</title>
<desc>Created by Proteus Design Suite</desc>
<defs>
</defs>
<g fill="none" stroke="black" stroke-width="1" fill-rule="evenodd" stroke-linecap="square" stroke-linejoin="bevel" >

<g fill="#ffffff" fill-opacity="1" stroke="none" transform="matrix(1,0,0,1,0,0)"
font-family="MS Shell Dlg 2" font-size="52.9167" font-weight="400" font-style="normal" 
>
<path vector-effect="non-scaling-stroke" fill-rule="evenodd" d="M0,0 L5132,0 L5132,1576 L0,1576 L0,0"/>
</g>

<g fill="none" stroke="#004000" stroke-opacity="1" stroke-width="8" stroke-linecap="round" stroke-linejoin="bevel" transform="matrix(1,0,0,1,0,0)"
font-family="MS Shell Dlg 2" font-size="52.9167" font-weight="400" font-style="normal" 
>
<path vector-effect="none" fill-rule="evenodd" d="M483,585 L1956,585 L1956,686 L2007,686"/>
</g>

<g fill="none" stroke="#004000" stroke-opacity="1" stroke-width="8" stroke-linecap="round" stroke-linejoin="bevel" transform="matrix(1,0,0,1,0,0)"
font-family="MS Shell Dlg 2" font-size="52.9167" font-weight="400" font-style="normal" 
>
<path vector-effect="none" fill-rule="evenodd" d="M483,1144 L788,1144"/>
</g>

<g fill="none" stroke="#004000" stroke-opacity="1" stroke-width="8" stroke-linecap="round" stroke-linejoin="bevel" transform="matrix(1,0,0,1,0,0)"
font-family="MS Shell Dlg 2" font-size="52.9167" font-weight="400" font-style="normal" 
>
<path vector-effect="none" fill-rule="evenodd" d="M2007,991 L1804,991 L1804,1144 L1652,1144"/>
</g>

<g fill="none" stroke="#004000" stroke-opacity="1" stroke-width="8" stroke-linecap="round" stroke-linejoin="bevel" transform="matrix(1,0,0,1,0,0)"
font-family="MS Shell Dlg 2" font-size="52.9167" font-weight="400" font-style="normal" 
>
<path vector-effect="none" fill-rule="evenodd" d="M2007,1093 L1855,1093 L1855,1296"/>
</g>

<g fill="none" stroke="#004000" stroke-opacity="1" stroke-width="8" stroke-linecap="round" stroke-linejoin="bevel" transform="matrix(1,0,0,1,0,0)"
font-family="MS Shell Dlg 2" font-size="52.9167" font-weight="400" font-style="normal" 
>
<path vector-effect="none" fill-rule="evenodd" d="M4547,534 L4395,534 L4395,890 L4293,890"/>
</g>

<g fill="none" stroke="#004000" stroke-opacity="1" stroke-width="8" stroke-linecap="round" stroke-linejoin="bevel" transform="matrix(1,0,0,1,0,0)"
font-family="MS Shell Dlg 2" font-size="52.9167" font-weight="400" font-style="normal" 
>
<path vector-effect="none" fill-rule="evenodd" d="M3684,636 L3633,636 L3633,585 L3684,585 L3684,382 L3633,382"/>
</g>

<g fill="none" stroke="#004000" stroke-opacity="1" stroke-width="8" stroke-linecap="round" stroke-linejoin="bevel" transform="matrix(1,0,0,1,0,0)"
font-family="MS Shell Dlg 2" font-size="52.9167" font-weight="400" font-style="normal" 
>
<path vector-effect="none" fill-rule="evenodd" d="M3684,788 L3379,788 L3379,890 L2668,890"/>
</g>

<g fill="none" stroke="#004000" stroke-opacity="1" stroke-width="8" stroke-linecap="round" stroke-linejoin="bevel" transform="matrix(1,0,0,1,0,0)"
font-family="MS Shell Dlg 2" font-size="52.9167" font-weight="400" font-style="normal" 
>
<path vector-effect="none" fill-rule="evenodd" d="M2566,890 L2668,890"/>
</g>

<g fill="none" stroke="#004000" stroke-opacity="1" stroke-width="8" stroke-linecap="round" stroke-linejoin="bevel" transform="matrix(1,0,0,1,0,0)"
font-family="MS Shell Dlg 2" font-size="52.9167" font-weight="400" font-style="normal" 
>
<path vector-effect="none" fill-rule="evenodd" d="M2769,382 L2668,382 L2668,890"/>
</g>

<g fill="none" stroke="#004000" stroke-opacity="1" stroke-width="8" stroke-linecap="round" stroke-linejoin="bevel" transform="matrix(1,0,0,1,0,0)"
font-family="MS Shell Dlg 2" font-size="52.9167" font-weight="400" font-style="normal" 
>
<path vector-effect="none" fill-rule="evenodd" d="M3684,1042 L3379,1042 L3379,1093 L2668,1093"/>
</g>

<g fill="none" stroke="#004000" stroke-opacity="1" stroke-width="8" stroke-linecap="round" stroke-linejoin="bevel" transform="matrix(1,0,0,1,0,0)"
font-family="MS Shell Dlg 2" font-size="52.9167" font-weight="400" font-style="normal" 
>
<path vector-effect="none" fill-rule="evenodd" d="M2566,1093 L2668,1093"/>
</g>

<g fill="none" stroke="#004000" stroke-opacity="1" stroke-width="8" stroke-linecap="round" stroke-linejoin="bevel" transform="matrix(1,0,0,1,0,0)"
font-family="MS Shell Dlg 2" font-size="52.9167" font-weight="400" font-style="normal" 
>
<path vector-effect="none" fill-rule="evenodd" d="M4547,1144 L4395,1144 L4395,1296 L2668,1296 L2668,1093"/>
</g>

<g fill="none" stroke="#004000" stroke-opacity="1" stroke-width="8" stroke-linecap="round" stroke-linejoin="bevel" transform="matrix(1,0,0,1,0,0)"
font-family="MS Shell Dlg 2" font-size="52.9167" font-weight="400" font-style="normal" 
>
<path vector-effect="none" fill-rule="evenodd" d="M382,564 L382,605 L432,585 L382,564"/>
</g>

<g fill="none" stroke="#004000" stroke-opacity="1" stroke-width="8" stroke-linecap="round" stroke-linejoin="bevel" transform="matrix(1,0,0,1,0,0)"
font-family="MS Shell Dlg 2" font-size="52.9167" font-weight="400" font-style="normal" 
>
<polyline fill="none" vector-effect="none" points="432,585 483,585 " />
</g>

<g fill="none" stroke="#000000" stroke-opacity="1" stroke-width="1" stroke-linecap="square" stroke-linejoin="bevel" transform="matrix(1,0,0,1,0,0)"
font-family="Arial" font-size="41.656" font-weight="400" font-style="normal" 
>
<text fill="#000000" fill-opacity="1" stroke="none" xml:space="preserve" x="233" y="601" font-family="Arial" font-size="41.656" font-weight="400" font-style="normal" 
 >A[0..7]</text>
</g>

<g fill="none" stroke="#004000" stroke-opacity="1" stroke-width="8" stroke-linecap="round" stroke-linejoin="bevel" transform="matrix(1,0,0,1,0,0)"
font-family="MS Shell Dlg 2" font-size="52.9167" font-weight="400" font-style="normal" 
>
</g>

<g fill="none" stroke="#004000" stroke-opacity="1" stroke-width="8" stroke-linecap="round" stroke-linejoin="bevel" transform="matrix(1,0,0,1,0,0)"
font-family="MS Shell Dlg 2" font-size="52.9167" font-weight="400" font-style="normal" 
>
<path vector-effect="none" fill-rule="evenodd" d="M382,1123 L382,1164 L432,1144 L382,1123"/>
</g>

<g fill="none" stroke="#004000" stroke-opacity="1" stroke-width="8" stroke-linecap="round" stroke-linejoin="bevel" transform="matrix(1,0,0,1,0,0)"
font-family="MS Shell Dlg 2" font-size="52.9167" font-weight="400" font-style="normal" 
>
<polyline fill="none" vector-effect="none" points="432,1144 483,1144 " />
</g>

<g fill="none" stroke="#000000" stroke-opacity="1" stroke-width="1" stroke-linecap="square" stroke-linejoin="bevel" transform="matrix(1,0,0,1,0,0)"
font-family="Arial" font-size="41.656" font-weight="400" font-style="normal" 
>
<text fill="#000000" fill-opacity="1" stroke="none" xml:space="preserve" x="233" y="1160" font-family="Arial" font-size="41.656" font-weight="400" font-style="normal" 
 >B[0..7]</text>
</g>

<g fill="none" stroke="#004000" stroke-opacity="1" stroke-width="8" stroke-linecap="round" stroke-linejoin="bevel" transform="matrix(1,0,0,1,0,0)"
font-family="MS Shell Dlg 2" font-size="52.9167" font-weight="400" font-style="normal" 
>
</g>

<g fill="none" stroke="#004000" stroke-opacity="1" stroke-width="8" stroke-linecap="round" stroke-linejoin="bevel" transform="matrix(1,0,0,1,0,0)"
font-family="MS Shell Dlg 2" font-size="52.9167" font-weight="400" font-style="normal" 
>
<path vector-effect="none" fill-rule="evenodd" d="M4598,514 L4598,554 L4649,534 L4598,514"/>
</g>

<g fill="none" stroke="#004000" stroke-opacity="1" stroke-width="8" stroke-linecap="round" stroke-linejoin="bevel" transform="matrix(1,0,0,1,0,0)"
font-family="MS Shell Dlg 2" font-size="52.9167" font-weight="400" font-style="normal" 
>
<polyline fill="none" vector-effect="none" points="4598,534 4547,534 " />
</g>

<g fill="none" stroke="#000000" stroke-opacity="1" stroke-width="1" stroke-linecap="square" stroke-linejoin="bevel" transform="matrix(1,0,0,1,0,0)"
font-family="Arial" font-size="41.656" font-weight="400" font-style="normal" 
>
<text fill="#000000" fill-opacity="1" stroke="none" xml:space="preserve" x="4674" y="550" font-family="Arial" font-size="41.656" font-weight="400" font-style="normal" 
 >ABSDIFF[0..7]</text>
</g>

<g fill="none" stroke="#004000" stroke-opacity="1" stroke-width="8" stroke-linecap="round" stroke-linejoin="bevel" transform="matrix(1,0,0,1,0,0)"
font-family="MS Shell Dlg 2" font-size="52.9167" font-weight="400" font-style="normal" 
>
</g>

<g fill="none" stroke="#004000" stroke-opacity="1" stroke-width="8" stroke-linecap="round" stroke-linejoin="bevel" transform="matrix(1,0,0,1,0,0)"
font-family="MS Shell Dlg 2" font-size="52.9167" font-weight="400" font-style="normal" 
>
<path vector-effect="none" fill-rule="evenodd" d="M4598,1123 L4598,1164 L4649,1144 L4598,1123"/>
</g>

<g fill="none" stroke="#004000" stroke-opacity="1" stroke-width="8" stroke-linecap="round" stroke-linejoin="bevel" transform="matrix(1,0,0,1,0,0)"
font-family="MS Shell Dlg 2" font-size="52.9167" font-weight="400" font-style="normal" 
>
<polyline fill="none" vector-effect="none" points="4598,1144 4547,1144 " />
</g>

<g fill="none" stroke="#000000" stroke-opacity="1" stroke-width="1" stroke-linecap="square" stroke-linejoin="bevel" transform="matrix(1,0,0,1,0,0)"
font-family="Arial" font-size="41.656" font-weight="400" font-style="normal" 
>
<text fill="#000000" fill-opacity="1" stroke="none" xml:space="preserve" x="4674" y="1160" font-family="Arial" font-size="41.656" font-weight="400" font-style="normal" 
 >AISBIGGER</text>
</g>

<g fill="none" stroke="#004000" stroke-opacity="1" stroke-width="8" stroke-linecap="round" stroke-linejoin="bevel" transform="matrix(1,0,0,1,0,0)"
font-family="MS Shell Dlg 2" font-size="52.9167" font-weight="400" font-style="normal" 
>
</g>

<g fill="#c8c8aa" fill-opacity="1" stroke="#000080" stroke-opacity="1" stroke-width="16" stroke-linecap="round" stroke-linejoin="bevel" transform="matrix(1,0,0,1,0,0)"
font-family="MS Shell Dlg 2" font-size="52.9167" font-weight="400" font-style="normal" 
>
<path vector-effect="none" fill-rule="evenodd" d="M2058,534 L2515,534 L2515,1194 L2058,1194 L2058,534"/>
</g>

<g fill="#c8c8aa" fill-opacity="1" stroke="#000000" stroke-opacity="1" stroke-width="1" stroke-linecap="square" stroke-linejoin="bevel" transform="matrix(1,0,0,1,0,0)"
font-family="Arial" font-size="62.484" font-weight="400" font-style="normal" 
>
<text fill="#000000" fill-opacity="1" stroke="none" xml:space="preserve" x="2050" y="514" font-family="Arial" font-size="62.484" font-weight="400" font-style="normal" 
 >8BIT-ADDER</text>
</g>

<g fill="#c8c8aa" fill-opacity="1" stroke="#000080" stroke-opacity="1" stroke-width="16" stroke-linecap="round" stroke-linejoin="bevel" transform="matrix(1,0,0,1,0,0)"
font-family="MS Shell Dlg 2" font-size="52.9167" font-weight="400" font-style="normal" 
>
</g>

<g fill="#c8c8aa" fill-opacity="1" stroke="#000000" stroke-opacity="1" stroke-width="1" stroke-linecap="square" stroke-linejoin="bevel" transform="matrix(1,0,0,1,0,0)"
font-family="Arial" font-size="41.656" font-weight="400" font-style="normal" 
>
<text fill="#000000" fill-opacity="1" stroke="none" xml:space="preserve" x="2050" y="1243" font-family="Arial" font-size="41.656" font-weight="400" font-style="normal" 
 >CCT005</text>
</g>

<g fill="#c8c8aa" fill-opacity="1" stroke="#000080" stroke-opacity="1" stroke-width="16" stroke-linecap="round" stroke-linejoin="bevel" transform="matrix(1,0,0,1,0,0)"
font-family="MS Shell Dlg 2" font-size="52.9167" font-weight="400" font-style="normal" 
>
</g>

<g fill="none" stroke="#004000" stroke-opacity="1" stroke-width="8" stroke-linecap="round" stroke-linejoin="bevel" transform="matrix(1,0,0,1,0,0)"
font-family="MS Shell Dlg 2" font-size="52.9167" font-weight="400" font-style="normal" 
>
<path vector-effect="none" fill-rule="evenodd" d="M2109,686 L2058,707 L2007,707 L2007,666 L2058,666 L2109,686"/>
</g>

<g fill="none" stroke="#004000" stroke-opacity="1" stroke-width="8" stroke-linecap="round" stroke-linejoin="bevel" transform="matrix(1,0,0,1,0,0)"
font-family="MS Shell Dlg 2" font-size="52.9167" font-weight="400" font-style="normal" 
>
<polyline fill="none" vector-effect="none" points="2058,707 2058,666 " />
</g>

<g fill="none" stroke="#000000" stroke-opacity="1" stroke-width="1" stroke-linecap="square" stroke-linejoin="bevel" transform="matrix(1,0,0,1,0,0)"
font-family="Arial" font-size="41.656" font-weight="400" font-style="normal" 
>
<text fill="#000000" fill-opacity="1" stroke="none" xml:space="preserve" x="2134" y="702" font-family="Arial" font-size="41.656" font-weight="400" font-style="normal" 
 >A[0..7]</text>
</g>

<g fill="none" stroke="#004000" stroke-opacity="1" stroke-width="8" stroke-linecap="round" stroke-linejoin="bevel" transform="matrix(1,0,0,1,0,0)"
font-family="MS Shell Dlg 2" font-size="52.9167" font-weight="400" font-style="normal" 
>
</g>

<g fill="none" stroke="#004000" stroke-opacity="1" stroke-width="8" stroke-linecap="round" stroke-linejoin="bevel" transform="matrix(1,0,0,1,0,0)"
font-family="MS Shell Dlg 2" font-size="52.9167" font-weight="400" font-style="normal" 
>
<path vector-effect="none" fill-rule="evenodd" d="M2109,991 L2058,1012 L2007,1012 L2007,971 L2058,971 L2109,991"/>
</g>

<g fill="none" stroke="#004000" stroke-opacity="1" stroke-width="8" stroke-linecap="round" stroke-linejoin="bevel" transform="matrix(1,0,0,1,0,0)"
font-family="MS Shell Dlg 2" font-size="52.9167" font-weight="400" font-style="normal" 
>
<polyline fill="none" vector-effect="none" points="2058,1012 2058,971 " />
</g>

<g fill="none" stroke="#000000" stroke-opacity="1" stroke-width="1" stroke-linecap="square" stroke-linejoin="bevel" transform="matrix(1,0,0,1,0,0)"
font-family="Arial" font-size="41.656" font-weight="400" font-style="normal" 
>
<text fill="#000000" fill-opacity="1" stroke="none" xml:space="preserve" x="2134" y="1007" font-family="Arial" font-size="41.656" font-weight="400" font-style="normal" 
 >B[0..7]</text>
</g>

<g fill="none" stroke="#004000" stroke-opacity="1" stroke-width="8" stroke-linecap="round" stroke-linejoin="bevel" transform="matrix(1,0,0,1,0,0)"
font-family="MS Shell Dlg 2" font-size="52.9167" font-weight="400" font-style="normal" 
>
</g>

<g fill="none" stroke="#004000" stroke-opacity="1" stroke-width="8" stroke-linecap="round" stroke-linejoin="bevel" transform="matrix(1,0,0,1,0,0)"
font-family="MS Shell Dlg 2" font-size="52.9167" font-weight="400" font-style="normal" 
>
<path vector-effect="none" fill-rule="evenodd" d="M2566,890 L2515,910 L2464,910 L2464,869 L2515,869 L2566,890"/>
</g>

<g fill="none" stroke="#004000" stroke-opacity="1" stroke-width="8" stroke-linecap="round" stroke-linejoin="bevel" transform="matrix(1,0,0,1,0,0)"
font-family="MS Shell Dlg 2" font-size="52.9167" font-weight="400" font-style="normal" 
>
<polyline fill="none" vector-effect="none" points="2515,910 2515,869 " />
</g>

<g fill="none" stroke="#000000" stroke-opacity="1" stroke-width="1" stroke-linecap="square" stroke-linejoin="bevel" transform="matrix(1,0,0,1,0,0)"
font-family="Arial" font-size="41.656" font-weight="400" font-style="normal" 
>
<text fill="#000000" fill-opacity="1" stroke="none" xml:space="preserve" x="2316" y="906" font-family="Arial" font-size="41.656" font-weight="400" font-style="normal" 
 >S[0..7]</text>
</g>

<g fill="none" stroke="#004000" stroke-opacity="1" stroke-width="8" stroke-linecap="round" stroke-linejoin="bevel" transform="matrix(1,0,0,1,0,0)"
font-family="MS Shell Dlg 2" font-size="52.9167" font-weight="400" font-style="normal" 
>
</g>

<g fill="none" stroke="#004000" stroke-opacity="1" stroke-width="8" stroke-linecap="round" stroke-linejoin="bevel" transform="matrix(1,0,0,1,0,0)"
font-family="MS Shell Dlg 2" font-size="52.9167" font-weight="400" font-style="normal" 
>
<path vector-effect="none" fill-rule="evenodd" d="M2109,1093 L2058,1113 L2007,1113 L2007,1072 L2058,1072 L2109,1093"/>
</g>

<g fill="none" stroke="#004000" stroke-opacity="1" stroke-width="8" stroke-linecap="round" stroke-linejoin="bevel" transform="matrix(1,0,0,1,0,0)"
font-family="MS Shell Dlg 2" font-size="52.9167" font-weight="400" font-style="normal" 
>
<polyline fill="none" vector-effect="none" points="2058,1113 2058,1072 " />
</g>

<g fill="none" stroke="#000000" stroke-opacity="1" stroke-width="1" stroke-linecap="square" stroke-linejoin="bevel" transform="matrix(1,0,0,1,0,0)"
font-family="Arial" font-size="41.656" font-weight="400" font-style="normal" 
>
<text fill="#000000" fill-opacity="1" stroke="none" xml:space="preserve" x="2134" y="1109" font-family="Arial" font-size="41.656" font-weight="400" font-style="normal" 
 >C0</text>
</g>

<g fill="none" stroke="#004000" stroke-opacity="1" stroke-width="8" stroke-linecap="round" stroke-linejoin="bevel" transform="matrix(1,0,0,1,0,0)"
font-family="MS Shell Dlg 2" font-size="52.9167" font-weight="400" font-style="normal" 
>
</g>

<g fill="none" stroke="#004000" stroke-opacity="1" stroke-width="8" stroke-linecap="round" stroke-linejoin="bevel" transform="matrix(1,0,0,1,0,0)"
font-family="MS Shell Dlg 2" font-size="52.9167" font-weight="400" font-style="normal" 
>
<path vector-effect="none" fill-rule="evenodd" d="M2566,1093 L2515,1113 L2464,1113 L2464,1072 L2515,1072 L2566,1093"/>
</g>

<g fill="none" stroke="#004000" stroke-opacity="1" stroke-width="8" stroke-linecap="round" stroke-linejoin="bevel" transform="matrix(1,0,0,1,0,0)"
font-family="MS Shell Dlg 2" font-size="52.9167" font-weight="400" font-style="normal" 
>
<polyline fill="none" vector-effect="none" points="2515,1113 2515,1072 " />
</g>

<g fill="none" stroke="#000000" stroke-opacity="1" stroke-width="1" stroke-linecap="square" stroke-linejoin="bevel" transform="matrix(1,0,0,1,0,0)"
font-family="Arial" font-size="41.656" font-weight="400" font-style="normal" 
>
<text fill="#000000" fill-opacity="1" stroke="none" xml:space="preserve" x="2385" y="1109" font-family="Arial" font-size="41.656" font-weight="400" font-style="normal" 
 >C4</text>
</g>

<g fill="none" stroke="#004000" stroke-opacity="1" stroke-width="8" stroke-linecap="round" stroke-linejoin="bevel" transform="matrix(1,0,0,1,0,0)"
font-family="MS Shell Dlg 2" font-size="52.9167" font-weight="400" font-style="normal" 
>
</g>

<g fill="#c8c8aa" fill-opacity="1" stroke="#000080" stroke-opacity="1" stroke-width="16" stroke-linecap="round" stroke-linejoin="bevel" transform="matrix(1,0,0,1,0,0)"
font-family="MS Shell Dlg 2" font-size="52.9167" font-weight="400" font-style="normal" 
>
<path vector-effect="none" fill-rule="evenodd" d="M839,1042 L1601,1042 L1601,1245 L839,1245 L839,1042"/>
</g>

<g fill="#c8c8aa" fill-opacity="1" stroke="#000000" stroke-opacity="1" stroke-width="1" stroke-linecap="square" stroke-linejoin="bevel" transform="matrix(1,0,0,1,0,0)"
font-family="Arial" font-size="62.484" font-weight="400" font-style="normal" 
>
<text fill="#000000" fill-opacity="1" stroke="none" xml:space="preserve" x="831" y="1022" font-family="Arial" font-size="62.484" font-weight="400" font-style="normal" 
 >8BIT-COMPLIMENTOR1</text>
</g>

<g fill="#c8c8aa" fill-opacity="1" stroke="#000080" stroke-opacity="1" stroke-width="16" stroke-linecap="round" stroke-linejoin="bevel" transform="matrix(1,0,0,1,0,0)"
font-family="MS Shell Dlg 2" font-size="52.9167" font-weight="400" font-style="normal" 
>
</g>

<g fill="#c8c8aa" fill-opacity="1" stroke="#000000" stroke-opacity="1" stroke-width="1" stroke-linecap="square" stroke-linejoin="bevel" transform="matrix(1,0,0,1,0,0)"
font-family="Arial" font-size="41.656" font-weight="400" font-style="normal" 
>
<text fill="#000000" fill-opacity="1" stroke="none" xml:space="preserve" x="831" y="1293" font-family="Arial" font-size="41.656" font-weight="400" font-style="normal" 
 >CCT003</text>
</g>

<g fill="#c8c8aa" fill-opacity="1" stroke="#000080" stroke-opacity="1" stroke-width="16" stroke-linecap="round" stroke-linejoin="bevel" transform="matrix(1,0,0,1,0,0)"
font-family="MS Shell Dlg 2" font-size="52.9167" font-weight="400" font-style="normal" 
>
</g>

<g fill="none" stroke="#004000" stroke-opacity="1" stroke-width="8" stroke-linecap="round" stroke-linejoin="bevel" transform="matrix(1,0,0,1,0,0)"
font-family="MS Shell Dlg 2" font-size="52.9167" font-weight="400" font-style="normal" 
>
<path vector-effect="none" fill-rule="evenodd" d="M890,1144 L839,1164 L788,1164 L788,1123 L839,1123 L890,1144"/>
</g>

<g fill="none" stroke="#004000" stroke-opacity="1" stroke-width="8" stroke-linecap="round" stroke-linejoin="bevel" transform="matrix(1,0,0,1,0,0)"
font-family="MS Shell Dlg 2" font-size="52.9167" font-weight="400" font-style="normal" 
>
<polyline fill="none" vector-effect="none" points="839,1164 839,1123 " />
</g>

<g fill="none" stroke="#000000" stroke-opacity="1" stroke-width="1" stroke-linecap="square" stroke-linejoin="bevel" transform="matrix(1,0,0,1,0,0)"
font-family="Arial" font-size="41.656" font-weight="400" font-style="normal" 
>
<text fill="#000000" fill-opacity="1" stroke="none" xml:space="preserve" x="915" y="1160" font-family="Arial" font-size="41.656" font-weight="400" font-style="normal" 
 >A[0..7]</text>
</g>

<g fill="none" stroke="#004000" stroke-opacity="1" stroke-width="8" stroke-linecap="round" stroke-linejoin="bevel" transform="matrix(1,0,0,1,0,0)"
font-family="MS Shell Dlg 2" font-size="52.9167" font-weight="400" font-style="normal" 
>
</g>

<g fill="none" stroke="#004000" stroke-opacity="1" stroke-width="8" stroke-linecap="round" stroke-linejoin="bevel" transform="matrix(1,0,0,1,0,0)"
font-family="MS Shell Dlg 2" font-size="52.9167" font-weight="400" font-style="normal" 
>
<path vector-effect="none" fill-rule="evenodd" d="M1652,1144 L1601,1164 L1550,1164 L1550,1123 L1601,1123 L1652,1144"/>
</g>

<g fill="none" stroke="#004000" stroke-opacity="1" stroke-width="8" stroke-linecap="round" stroke-linejoin="bevel" transform="matrix(1,0,0,1,0,0)"
font-family="MS Shell Dlg 2" font-size="52.9167" font-weight="400" font-style="normal" 
>
<polyline fill="none" vector-effect="none" points="1601,1164 1601,1123 " />
</g>

<g fill="none" stroke="#000000" stroke-opacity="1" stroke-width="1" stroke-linecap="square" stroke-linejoin="bevel" transform="matrix(1,0,0,1,0,0)"
font-family="Arial" font-size="41.656" font-weight="400" font-style="normal" 
>
<text fill="#000000" fill-opacity="1" stroke="none" xml:space="preserve" x="1400" y="1160" font-family="Arial" font-size="41.656" font-weight="400" font-style="normal" 
 >C[0..7]</text>
</g>

<g fill="none" stroke="#004000" stroke-opacity="1" stroke-width="8" stroke-linecap="round" stroke-linejoin="bevel" transform="matrix(1,0,0,1,0,0)"
font-family="MS Shell Dlg 2" font-size="52.9167" font-weight="400" font-style="normal" 
>
</g>

<g fill="none" stroke="#004000" stroke-opacity="1" stroke-width="8" stroke-linecap="round" stroke-linejoin="bevel" transform="matrix(1,0,0,1,0,0)"
font-family="MS Shell Dlg 2" font-size="52.9167" font-weight="400" font-style="normal" 
>
<polyline fill="none" vector-effect="none" points="1855,1296 1855,1347 " />
</g>

<g fill="none" stroke="#004000" stroke-opacity="1" stroke-width="8" stroke-linecap="round" stroke-linejoin="bevel" transform="matrix(1,0,0,1,0,0)"
font-family="MS Shell Dlg 2" font-size="52.9167" font-weight="400" font-style="normal" 
>
<polyline fill="none" vector-effect="none" points="1804,1347 1906,1347 " />
</g>

<g fill="none" stroke="#004000" stroke-opacity="1" stroke-width="8" stroke-linecap="round" stroke-linejoin="bevel" transform="matrix(1,0,0,1,0,0)"
font-family="MS Shell Dlg 2" font-size="52.9167" font-weight="400" font-style="normal" 
>
<polyline fill="none" vector-effect="none" points="1829,1372 1880,1372 " />
</g>

<g fill="none" stroke="#004000" stroke-opacity="1" stroke-width="8" stroke-linecap="round" stroke-linejoin="bevel" transform="matrix(1,0,0,1,0,0)"
font-family="MS Shell Dlg 2" font-size="52.9167" font-weight="400" font-style="normal" 
>
<polyline fill="none" vector-effect="none" points="1850,1398 1860,1398 " />
</g>

<g fill="#c8c8aa" fill-opacity="1" stroke="#000080" stroke-opacity="1" stroke-width="16" stroke-linecap="round" stroke-linejoin="bevel" transform="matrix(1,0,0,1,0,0)"
font-family="MS Shell Dlg 2" font-size="52.9167" font-weight="400" font-style="normal" 
>
<path vector-effect="none" fill-rule="evenodd" d="M3734,585 L4242,585 L4242,1194 L3734,1194 L3734,585"/>
</g>

<g fill="#c8c8aa" fill-opacity="1" stroke="#000000" stroke-opacity="1" stroke-width="1" stroke-linecap="square" stroke-linejoin="bevel" transform="matrix(1,0,0,1,0,0)"
font-family="Arial" font-size="62.484" font-weight="400" font-style="normal" 
>
<text fill="#000000" fill-opacity="1" stroke="none" xml:space="preserve" x="3726" y="565" font-family="Arial" font-size="62.484" font-weight="400" font-style="normal" 
 >8BIT-1-OF-2-MUX</text>
</g>

<g fill="#c8c8aa" fill-opacity="1" stroke="#000080" stroke-opacity="1" stroke-width="16" stroke-linecap="round" stroke-linejoin="bevel" transform="matrix(1,0,0,1,0,0)"
font-family="MS Shell Dlg 2" font-size="52.9167" font-weight="400" font-style="normal" 
>
</g>

<g fill="#c8c8aa" fill-opacity="1" stroke="#000000" stroke-opacity="1" stroke-width="1" stroke-linecap="square" stroke-linejoin="bevel" transform="matrix(1,0,0,1,0,0)"
font-family="Arial" font-size="41.656" font-weight="400" font-style="normal" 
>
<text fill="#000000" fill-opacity="1" stroke="none" xml:space="preserve" x="3726" y="1243" font-family="Arial" font-size="41.656" font-weight="400" font-style="normal" 
 >CCT001</text>
</g>

<g fill="#c8c8aa" fill-opacity="1" stroke="#000080" stroke-opacity="1" stroke-width="16" stroke-linecap="round" stroke-linejoin="bevel" transform="matrix(1,0,0,1,0,0)"
font-family="MS Shell Dlg 2" font-size="52.9167" font-weight="400" font-style="normal" 
>
</g>

<g fill="none" stroke="#004000" stroke-opacity="1" stroke-width="8" stroke-linecap="round" stroke-linejoin="bevel" transform="matrix(1,0,0,1,0,0)"
font-family="MS Shell Dlg 2" font-size="52.9167" font-weight="400" font-style="normal" 
>
<path vector-effect="none" fill-rule="evenodd" d="M3785,636 L3734,656 L3684,656 L3684,615 L3734,615 L3785,636"/>
</g>

<g fill="none" stroke="#004000" stroke-opacity="1" stroke-width="8" stroke-linecap="round" stroke-linejoin="bevel" transform="matrix(1,0,0,1,0,0)"
font-family="MS Shell Dlg 2" font-size="52.9167" font-weight="400" font-style="normal" 
>
<polyline fill="none" vector-effect="none" points="3734,656 3734,615 " />
</g>

<g fill="none" stroke="#000000" stroke-opacity="1" stroke-width="1" stroke-linecap="square" stroke-linejoin="bevel" transform="matrix(1,0,0,1,0,0)"
font-family="Arial" font-size="41.656" font-weight="400" font-style="normal" 
>
<text fill="#000000" fill-opacity="1" stroke="none" xml:space="preserve" x="3811" y="652" font-family="Arial" font-size="41.656" font-weight="400" font-style="normal" 
 >A[0..7]</text>
</g>

<g fill="none" stroke="#004000" stroke-opacity="1" stroke-width="8" stroke-linecap="round" stroke-linejoin="bevel" transform="matrix(1,0,0,1,0,0)"
font-family="MS Shell Dlg 2" font-size="52.9167" font-weight="400" font-style="normal" 
>
</g>

<g fill="none" stroke="#004000" stroke-opacity="1" stroke-width="8" stroke-linecap="round" stroke-linejoin="bevel" transform="matrix(1,0,0,1,0,0)"
font-family="MS Shell Dlg 2" font-size="52.9167" font-weight="400" font-style="normal" 
>
<path vector-effect="none" fill-rule="evenodd" d="M3785,788 L3734,808 L3684,808 L3684,768 L3734,768 L3785,788"/>
</g>

<g fill="none" stroke="#004000" stroke-opacity="1" stroke-width="8" stroke-linecap="round" stroke-linejoin="bevel" transform="matrix(1,0,0,1,0,0)"
font-family="MS Shell Dlg 2" font-size="52.9167" font-weight="400" font-style="normal" 
>
<polyline fill="none" vector-effect="none" points="3734,808 3734,768 " />
</g>

<g fill="none" stroke="#000000" stroke-opacity="1" stroke-width="1" stroke-linecap="square" stroke-linejoin="bevel" transform="matrix(1,0,0,1,0,0)"
font-family="Arial" font-size="41.656" font-weight="400" font-style="normal" 
>
<text fill="#000000" fill-opacity="1" stroke="none" xml:space="preserve" x="3811" y="804" font-family="Arial" font-size="41.656" font-weight="400" font-style="normal" 
 >B[0..7]</text>
</g>

<g fill="none" stroke="#004000" stroke-opacity="1" stroke-width="8" stroke-linecap="round" stroke-linejoin="bevel" transform="matrix(1,0,0,1,0,0)"
font-family="MS Shell Dlg 2" font-size="52.9167" font-weight="400" font-style="normal" 
>
</g>

<g fill="none" stroke="#004000" stroke-opacity="1" stroke-width="8" stroke-linecap="round" stroke-linejoin="bevel" transform="matrix(1,0,0,1,0,0)"
font-family="MS Shell Dlg 2" font-size="52.9167" font-weight="400" font-style="normal" 
>
<path vector-effect="none" fill-rule="evenodd" d="M3785,1042 L3734,1062 L3684,1062 L3684,1022 L3734,1022 L3785,1042"/>
</g>

<g fill="none" stroke="#004000" stroke-opacity="1" stroke-width="8" stroke-linecap="round" stroke-linejoin="bevel" transform="matrix(1,0,0,1,0,0)"
font-family="MS Shell Dlg 2" font-size="52.9167" font-weight="400" font-style="normal" 
>
<polyline fill="none" vector-effect="none" points="3734,1062 3734,1022 " />
</g>

<g fill="none" stroke="#000000" stroke-opacity="1" stroke-width="1" stroke-linecap="square" stroke-linejoin="bevel" transform="matrix(1,0,0,1,0,0)"
font-family="Arial" font-size="41.656" font-weight="400" font-style="normal" 
>
<text fill="#000000" fill-opacity="1" stroke="none" xml:space="preserve" x="3811" y="1058" font-family="Arial" font-size="41.656" font-weight="400" font-style="normal" 
 >S</text>
</g>

<g fill="none" stroke="#004000" stroke-opacity="1" stroke-width="8" stroke-linecap="round" stroke-linejoin="bevel" transform="matrix(1,0,0,1,0,0)"
font-family="MS Shell Dlg 2" font-size="52.9167" font-weight="400" font-style="normal" 
>
</g>

<g fill="none" stroke="#004000" stroke-opacity="1" stroke-width="8" stroke-linecap="round" stroke-linejoin="bevel" transform="matrix(1,0,0,1,0,0)"
font-family="MS Shell Dlg 2" font-size="52.9167" font-weight="400" font-style="normal" 
>
<path vector-effect="none" fill-rule="evenodd" d="M4293,890 L4242,910 L4192,910 L4192,869 L4242,869 L4293,890"/>
</g>

<g fill="none" stroke="#004000" stroke-opacity="1" stroke-width="8" stroke-linecap="round" stroke-linejoin="bevel" transform="matrix(1,0,0,1,0,0)"
font-family="MS Shell Dlg 2" font-size="52.9167" font-weight="400" font-style="normal" 
>
<polyline fill="none" vector-effect="none" points="4242,910 4242,869 " />
</g>

<g fill="none" stroke="#000000" stroke-opacity="1" stroke-width="1" stroke-linecap="square" stroke-linejoin="bevel" transform="matrix(1,0,0,1,0,0)"
font-family="Arial" font-size="41.656" font-weight="400" font-style="normal" 
>
<text fill="#000000" fill-opacity="1" stroke="none" xml:space="preserve" x="4043" y="906" font-family="Arial" font-size="41.656" font-weight="400" font-style="normal" 
 >Y[0..7]</text>
</g>

<g fill="none" stroke="#004000" stroke-opacity="1" stroke-width="8" stroke-linecap="round" stroke-linejoin="bevel" transform="matrix(1,0,0,1,0,0)"
font-family="MS Shell Dlg 2" font-size="52.9167" font-weight="400" font-style="normal" 
>
</g>

<g fill="#c8c8aa" fill-opacity="1" stroke="#000080" stroke-opacity="1" stroke-width="16" stroke-linecap="round" stroke-linejoin="bevel" transform="matrix(1,0,0,1,0,0)"
font-family="MS Shell Dlg 2" font-size="52.9167" font-weight="400" font-style="normal" 
>
<path vector-effect="none" fill-rule="evenodd" d="M2820,280 L3582,280 L3582,483 L2820,483 L2820,280"/>
</g>

<g fill="#c8c8aa" fill-opacity="1" stroke="#000000" stroke-opacity="1" stroke-width="1" stroke-linecap="square" stroke-linejoin="bevel" transform="matrix(1,0,0,1,0,0)"
font-family="Arial" font-size="62.484" font-weight="400" font-style="normal" 
>
<text fill="#000000" fill-opacity="1" stroke="none" xml:space="preserve" x="2812" y="260" font-family="Arial" font-size="62.484" font-weight="400" font-style="normal" 
 >8BIT-COMPLIMENTOR2</text>
</g>

<g fill="#c8c8aa" fill-opacity="1" stroke="#000080" stroke-opacity="1" stroke-width="16" stroke-linecap="round" stroke-linejoin="bevel" transform="matrix(1,0,0,1,0,0)"
font-family="MS Shell Dlg 2" font-size="52.9167" font-weight="400" font-style="normal" 
>
</g>

<g fill="#c8c8aa" fill-opacity="1" stroke="#000000" stroke-opacity="1" stroke-width="1" stroke-linecap="square" stroke-linejoin="bevel" transform="matrix(1,0,0,1,0,0)"
font-family="Arial" font-size="41.656" font-weight="400" font-style="normal" 
>
<text fill="#000000" fill-opacity="1" stroke="none" xml:space="preserve" x="2812" y="531" font-family="Arial" font-size="41.656" font-weight="400" font-style="normal" 
 >CCT003</text>
</g>

<g fill="#c8c8aa" fill-opacity="1" stroke="#000080" stroke-opacity="1" stroke-width="16" stroke-linecap="round" stroke-linejoin="bevel" transform="matrix(1,0,0,1,0,0)"
font-family="MS Shell Dlg 2" font-size="52.9167" font-weight="400" font-style="normal" 
>
</g>

<g fill="none" stroke="#004000" stroke-opacity="1" stroke-width="8" stroke-linecap="round" stroke-linejoin="bevel" transform="matrix(1,0,0,1,0,0)"
font-family="MS Shell Dlg 2" font-size="52.9167" font-weight="400" font-style="normal" 
>
<path vector-effect="none" fill-rule="evenodd" d="M2871,382 L2820,402 L2769,402 L2769,361 L2820,361 L2871,382"/>
</g>

<g fill="none" stroke="#004000" stroke-opacity="1" stroke-width="8" stroke-linecap="round" stroke-linejoin="bevel" transform="matrix(1,0,0,1,0,0)"
font-family="MS Shell Dlg 2" font-size="52.9167" font-weight="400" font-style="normal" 
>
<polyline fill="none" vector-effect="none" points="2820,402 2820,361 " />
</g>

<g fill="none" stroke="#000000" stroke-opacity="1" stroke-width="1" stroke-linecap="square" stroke-linejoin="bevel" transform="matrix(1,0,0,1,0,0)"
font-family="Arial" font-size="41.656" font-weight="400" font-style="normal" 
>
<text fill="#000000" fill-opacity="1" stroke="none" xml:space="preserve" x="2896" y="398" font-family="Arial" font-size="41.656" font-weight="400" font-style="normal" 
 >A[0..7]</text>
</g>

<g fill="none" stroke="#004000" stroke-opacity="1" stroke-width="8" stroke-linecap="round" stroke-linejoin="bevel" transform="matrix(1,0,0,1,0,0)"
font-family="MS Shell Dlg 2" font-size="52.9167" font-weight="400" font-style="normal" 
>
</g>

<g fill="none" stroke="#004000" stroke-opacity="1" stroke-width="8" stroke-linecap="round" stroke-linejoin="bevel" transform="matrix(1,0,0,1,0,0)"
font-family="MS Shell Dlg 2" font-size="52.9167" font-weight="400" font-style="normal" 
>
<path vector-effect="none" fill-rule="evenodd" d="M3633,382 L3582,402 L3531,402 L3531,361 L3582,361 L3633,382"/>
</g>

<g fill="none" stroke="#004000" stroke-opacity="1" stroke-width="8" stroke-linecap="round" stroke-linejoin="bevel" transform="matrix(1,0,0,1,0,0)"
font-family="MS Shell Dlg 2" font-size="52.9167" font-weight="400" font-style="normal" 
>
<polyline fill="none" vector-effect="none" points="3582,402 3582,361 " />
</g>

<g fill="none" stroke="#000000" stroke-opacity="1" stroke-width="1" stroke-linecap="square" stroke-linejoin="bevel" transform="matrix(1,0,0,1,0,0)"
font-family="Arial" font-size="41.656" font-weight="400" font-style="normal" 
>
<text fill="#000000" fill-opacity="1" stroke="none" xml:space="preserve" x="3381" y="398" font-family="Arial" font-size="41.656" font-weight="400" font-style="normal" 
 >C[0..7]</text>
</g>

<g fill="none" stroke="#004000" stroke-opacity="1" stroke-width="8" stroke-linecap="round" stroke-linejoin="bevel" transform="matrix(1,0,0,1,0,0)"
font-family="MS Shell Dlg 2" font-size="52.9167" font-weight="400" font-style="normal" 
>
</g>

<g fill="#004000" fill-opacity="1" stroke="#004000" stroke-opacity="1" stroke-width="8" stroke-linecap="round" stroke-linejoin="bevel" transform="matrix(1,0,0,1,0,0)"
font-family="MS Shell Dlg 2" font-size="52.9167" font-weight="400" font-style="normal" 
>
<path vector-effect="none" fill-rule="evenodd" d="M2678,890 C2678,895.523 2673.52,900 2668,900 C2662.48,900 2658,895.523 2658,890 C2658,884.477 2662.48,880 2668,880 C2673.52,880 2678,884.477 2678,890 "/>
</g>

<g fill="#004000" fill-opacity="1" stroke="#004000" stroke-opacity="1" stroke-width="8" stroke-linecap="round" stroke-linejoin="bevel" transform="matrix(1,0,0,1,0,0)"
font-family="MS Shell Dlg 2" font-size="52.9167" font-weight="400" font-style="normal" 
>
<path vector-effect="none" fill-rule="evenodd" d="M2678,1093 C2678,1098.52 2673.52,1103 2668,1103 C2662.48,1103 2658,1098.52 2658,1093 C2658,1087.48 2662.48,1083 2668,1083 C2673.52,1083 2678,1087.48 2678,1093 "/>
</g>
</g>
</svg>
