<?xml version="1.0" encoding="UTF-8" standalone="no"?>
<svg width="78.8mm" height="40.7mm"
 viewBox="0 0 1576 814"
 xmlns="http://www.w3.org/2000/svg" xmlns:xlink="http://www.w3.org/1999/xlink"  version="1.2" baseProfile="tiny">
<title>Proteus Design Suite SVG export</title>
<desc>Created by Proteus Design Suite</desc>
<defs>
</defs>
<g fill="none" stroke="black" stroke-width="1" fill-rule="evenodd" stroke-linecap="square" stroke-linejoin="bevel" >

<g fill="#ffffff" fill-opacity="1" stroke="none" transform="matrix(1,0,0,1,0,0)"
font-family="MS Shell Dlg 2" font-size="58.2083" font-weight="400" font-style="normal" 
>
<path vector-effect="non-scaling-stroke" fill-rule="evenodd" d="M0,0 L1576,0 L1576,814 L0,814 L0,0"/>
</g>

<g fill="none" stroke="#004000" stroke-opacity="1" stroke-width="8" stroke-linecap="round" stroke-linejoin="bevel" transform="matrix(1,0,0,1,0,0)"
font-family="MS Shell Dlg 2" font-size="58.2083" font-weight="400" font-style="normal" 
>
<path vector-effect="none" fill-rule="evenodd" d="M432,305 L331,305"/>
</g>

<g fill="none" stroke="#004000" stroke-opacity="1" stroke-width="8" stroke-linecap="round" stroke-linejoin="bevel" transform="matrix(1,0,0,1,0,0)"
font-family="MS Shell Dlg 2" font-size="58.2083" font-weight="400" font-style="normal" 
>
<path vector-effect="none" fill-rule="evenodd" d="M432,305 L585,305"/>
</g>

<g fill="none" stroke="#004000" stroke-opacity="1" stroke-width="8" stroke-linecap="round" stroke-linejoin="bevel" transform="matrix(1,0,0,1,0,0)"
font-family="MS Shell Dlg 2" font-size="58.2083" font-weight="400" font-style="normal" 
>
<path vector-effect="none" fill-rule="evenodd" d="M432,305 L432,559 L585,559"/>
</g>

<g fill="none" stroke="#004000" stroke-opacity="1" stroke-width="8" stroke-linecap="round" stroke-linejoin="bevel" transform="matrix(1,0,0,1,0,0)"
font-family="MS Shell Dlg 2" font-size="58.2083" font-weight="400" font-style="normal" 
>
<path vector-effect="none" fill-rule="evenodd" d="M382,204 L331,204"/>
</g>

<g fill="none" stroke="#004000" stroke-opacity="1" stroke-width="8" stroke-linecap="round" stroke-linejoin="bevel" transform="matrix(1,0,0,1,0,0)"
font-family="MS Shell Dlg 2" font-size="58.2083" font-weight="400" font-style="normal" 
>
<path vector-effect="none" fill-rule="evenodd" d="M382,204 L585,204"/>
</g>

<g fill="none" stroke="#004000" stroke-opacity="1" stroke-width="8" stroke-linecap="round" stroke-linejoin="bevel" transform="matrix(1,0,0,1,0,0)"
font-family="MS Shell Dlg 2" font-size="58.2083" font-weight="400" font-style="normal" 
>
<path vector-effect="none" fill-rule="evenodd" d="M382,204 L382,661 L585,661"/>
</g>

<g fill="none" stroke="#004000" stroke-opacity="1" stroke-width="8" stroke-linecap="round" stroke-linejoin="bevel" transform="matrix(1,0,0,1,0,0)"
font-family="MS Shell Dlg 2" font-size="58.2083" font-weight="400" font-style="normal" 
>
<path vector-effect="none" fill-rule="evenodd" d="M1093,610 L1144,610"/>
</g>

<g fill="none" stroke="#004000" stroke-opacity="1" stroke-width="8" stroke-linecap="round" stroke-linejoin="bevel" transform="matrix(1,0,0,1,0,0)"
font-family="MS Shell Dlg 2" font-size="58.2083" font-weight="400" font-style="normal" 
>
<path vector-effect="none" fill-rule="evenodd" d="M1144,255 L1093,255"/>
</g>

<g fill="#c8c8aa" fill-opacity="1" stroke="#800000" stroke-opacity="1" stroke-width="8" stroke-linecap="round" stroke-linejoin="bevel" transform="matrix(1,0,0,1,0,0)"
font-family="MS Shell Dlg 2" font-size="58.2083" font-weight="400" font-style="normal" 
>
<path vector-effect="none" fill-rule="evenodd" d="M991,255 C991,199 945,153 890,153 L686,153 L686,356 L890,356 C945,356 991,310 991,255 "/>
</g>

<g fill="none" stroke="#800000" stroke-opacity="1" stroke-width="8" stroke-linecap="round" stroke-linejoin="bevel" transform="matrix(1,0,0,1,0,0)"
font-family="MS Shell Dlg 2" font-size="58.2083" font-weight="400" font-style="normal" 
>
<polyline fill="none" vector-effect="none" points="585,204 686,204 " />
</g>

<g fill="none" stroke="#000000" stroke-opacity="1" stroke-width="1" stroke-linecap="square" stroke-linejoin="bevel" transform="matrix(1,0,0,1,0,0)"
font-family="Arial" font-size="41.656" font-weight="400" font-style="normal" 
>
<text fill="#000000" fill-opacity="1" stroke="none" xml:space="preserve" x="613" y="196" font-family="Arial" font-size="41.656" font-weight="400" font-style="normal" 
 >1</text>
</g>

<g fill="none" stroke="#800000" stroke-opacity="1" stroke-width="8" stroke-linecap="round" stroke-linejoin="bevel" transform="matrix(1,0,0,1,0,0)"
font-family="MS Shell Dlg 2" font-size="58.2083" font-weight="400" font-style="normal" 
>
</g>

<g fill="none" stroke="#800000" stroke-opacity="1" stroke-width="8" stroke-linecap="round" stroke-linejoin="bevel" transform="matrix(1,0,0,1,0,0)"
font-family="MS Shell Dlg 2" font-size="58.2083" font-weight="400" font-style="normal" 
>
<polyline fill="none" vector-effect="none" points="585,305 686,305 " />
</g>

<g fill="none" stroke="#000000" stroke-opacity="1" stroke-width="1" stroke-linecap="square" stroke-linejoin="bevel" transform="matrix(1,0,0,1,0,0)"
font-family="Arial" font-size="41.656" font-weight="400" font-style="normal" 
>
<text fill="#000000" fill-opacity="1" stroke="none" xml:space="preserve" x="613" y="297" font-family="Arial" font-size="41.656" font-weight="400" font-style="normal" 
 >2</text>
</g>

<g fill="none" stroke="#800000" stroke-opacity="1" stroke-width="8" stroke-linecap="round" stroke-linejoin="bevel" transform="matrix(1,0,0,1,0,0)"
font-family="MS Shell Dlg 2" font-size="58.2083" font-weight="400" font-style="normal" 
>
</g>

<g fill="none" stroke="#800000" stroke-opacity="1" stroke-width="8" stroke-linecap="round" stroke-linejoin="bevel" transform="matrix(1,0,0,1,0,0)"
font-family="MS Shell Dlg 2" font-size="58.2083" font-weight="400" font-style="normal" 
>
<polyline fill="none" vector-effect="none" points="1093,255 991,255 " />
</g>

<g fill="none" stroke="#000000" stroke-opacity="1" stroke-width="1" stroke-linecap="square" stroke-linejoin="bevel" transform="matrix(1,0,0,1,0,0)"
font-family="Arial" font-size="41.656" font-weight="400" font-style="normal" 
>
<text fill="#000000" fill-opacity="1" stroke="none" xml:space="preserve" x="1042" y="247" font-family="Arial" font-size="41.656" font-weight="400" font-style="normal" 
 >3</text>
</g>

<g fill="none" stroke="#800000" stroke-opacity="1" stroke-width="8" stroke-linecap="round" stroke-linejoin="bevel" transform="matrix(1,0,0,1,0,0)"
font-family="MS Shell Dlg 2" font-size="58.2083" font-weight="400" font-style="normal" 
>
</g>

<g fill="none" stroke="#000000" stroke-opacity="1" stroke-width="1" stroke-linecap="square" stroke-linejoin="bevel" transform="matrix(1,0,0,1,0,0)"
font-family="Arial" font-size="62.484" font-weight="400" font-style="normal" 
>
<text fill="#000000" fill-opacity="1" stroke="none" xml:space="preserve" x="682" y="137" font-family="Arial" font-size="62.484" font-weight="400" font-style="normal" 
 >U12</text>
</g>

<g fill="none" stroke="#800000" stroke-opacity="1" stroke-width="8" stroke-linecap="round" stroke-linejoin="bevel" transform="matrix(1,0,0,1,0,0)"
font-family="MS Shell Dlg 2" font-size="58.2083" font-weight="400" font-style="normal" 
>
</g>

<g fill="none" stroke="#000000" stroke-opacity="1" stroke-width="1" stroke-linecap="square" stroke-linejoin="bevel" transform="matrix(1,0,0,1,0,0)"
font-family="Arial" font-size="41.656" font-weight="400" font-style="normal" 
>
<text fill="#000000" fill-opacity="1" stroke="none" xml:space="preserve" x="682" y="400" font-family="Arial" font-size="41.656" font-weight="400" font-style="normal" 
 >AND</text>
</g>

<g fill="none" stroke="#800000" stroke-opacity="1" stroke-width="8" stroke-linecap="round" stroke-linejoin="bevel" transform="matrix(1,0,0,1,0,0)"
font-family="MS Shell Dlg 2" font-size="58.2083" font-weight="400" font-style="normal" 
>
</g>

<g fill="#c8c8aa" fill-opacity="1" stroke="#800000" stroke-opacity="1" stroke-width="8" stroke-linecap="round" stroke-linejoin="bevel" transform="matrix(1,0,0,1,0,0)"
font-family="MS Shell Dlg 2" font-size="58.2083" font-weight="400" font-style="normal" 
>
<path vector-effect="none" fill-rule="evenodd" d="M981,610 C951,549 885,509 808,509 L676,509 C707,509 727,554 727,610 C727,666 707,712 676,712 L808,712 C885,712 951,671 981,610 "/>
</g>

<g fill="none" stroke="#800000" stroke-opacity="1" stroke-width="8" stroke-linecap="round" stroke-linejoin="bevel" transform="matrix(1,0,0,1,0,0)"
font-family="MS Shell Dlg 2" font-size="58.2083" font-weight="400" font-style="normal" 
>
<path vector-effect="none" fill-rule="evenodd" d="M702,610 C702,564 681,529 651,519 "/>
</g>

<g fill="none" stroke="#800000" stroke-opacity="1" stroke-width="8" stroke-linecap="round" stroke-linejoin="bevel" transform="matrix(1,0,0,1,0,0)"
font-family="MS Shell Dlg 2" font-size="58.2083" font-weight="400" font-style="normal" 
>
<path vector-effect="none" fill-rule="evenodd" d="M702,610 C702,656 681,691 651,702 "/>
</g>

<g fill="none" stroke="#800000" stroke-opacity="1" stroke-width="8" stroke-linecap="round" stroke-linejoin="bevel" transform="matrix(1,0,0,1,0,0)"
font-family="MS Shell Dlg 2" font-size="58.2083" font-weight="400" font-style="normal" 
>
<polyline fill="none" vector-effect="none" points="676,559 691,559 " />
</g>

<g fill="none" stroke="#800000" stroke-opacity="1" stroke-width="8" stroke-linecap="round" stroke-linejoin="bevel" transform="matrix(1,0,0,1,0,0)"
font-family="MS Shell Dlg 2" font-size="58.2083" font-weight="400" font-style="normal" 
>
<polyline fill="none" vector-effect="none" points="676,661 691,661 " />
</g>

<g fill="none" stroke="#800000" stroke-opacity="1" stroke-width="8" stroke-linecap="round" stroke-linejoin="bevel" transform="matrix(1,0,0,1,0,0)"
font-family="MS Shell Dlg 2" font-size="58.2083" font-weight="400" font-style="normal" 
>
<polyline fill="none" vector-effect="none" points="981,610 991,610 " />
</g>

<g fill="none" stroke="#800000" stroke-opacity="1" stroke-width="8" stroke-linecap="round" stroke-linejoin="bevel" transform="matrix(1,0,0,1,0,0)"
font-family="MS Shell Dlg 2" font-size="58.2083" font-weight="400" font-style="normal" 
>
<polyline fill="none" vector-effect="none" points="585,559 686,559 " />
</g>

<g fill="none" stroke="#800000" stroke-opacity="1" stroke-width="8" stroke-linecap="round" stroke-linejoin="bevel" transform="matrix(1,0,0,1,0,0)"
font-family="MS Shell Dlg 2" font-size="58.2083" font-weight="400" font-style="normal" 
>
<polyline fill="none" vector-effect="none" points="585,661 686,661 " />
</g>

<g fill="none" stroke="#800000" stroke-opacity="1" stroke-width="8" stroke-linecap="round" stroke-linejoin="bevel" transform="matrix(1,0,0,1,0,0)"
font-family="MS Shell Dlg 2" font-size="58.2083" font-weight="400" font-style="normal" 
>
<polyline fill="none" vector-effect="none" points="1093,610 991,610 " />
</g>

<g fill="none" stroke="#000000" stroke-opacity="1" stroke-width="1" stroke-linecap="square" stroke-linejoin="bevel" transform="matrix(1,0,0,1,0,0)"
font-family="Arial" font-size="62.484" font-weight="400" font-style="normal" 
>
<text fill="#000000" fill-opacity="1" stroke="none" xml:space="preserve" x="647" y="493" font-family="Arial" font-size="62.484" font-weight="400" font-style="normal" 
 >U13</text>
</g>

<g fill="none" stroke="#800000" stroke-opacity="1" stroke-width="8" stroke-linecap="round" stroke-linejoin="bevel" transform="matrix(1,0,0,1,0,0)"
font-family="MS Shell Dlg 2" font-size="58.2083" font-weight="400" font-style="normal" 
>
</g>

<g fill="none" stroke="#000000" stroke-opacity="1" stroke-width="1" stroke-linecap="square" stroke-linejoin="bevel" transform="matrix(1,0,0,1,0,0)"
font-family="Arial" font-size="41.656" font-weight="400" font-style="normal" 
>
<text fill="#000000" fill-opacity="1" stroke="none" xml:space="preserve" x="647" y="756" font-family="Arial" font-size="41.656" font-weight="400" font-style="normal" 
 >XOR</text>
</g>

<g fill="none" stroke="#800000" stroke-opacity="1" stroke-width="8" stroke-linecap="round" stroke-linejoin="bevel" transform="matrix(1,0,0,1,0,0)"
font-family="MS Shell Dlg 2" font-size="58.2083" font-weight="400" font-style="normal" 
>
</g>

<g fill="none" stroke="#004000" stroke-opacity="1" stroke-width="8" stroke-linecap="round" stroke-linejoin="bevel" transform="matrix(1,0,0,1,0,0)"
font-family="MS Shell Dlg 2" font-size="58.2083" font-weight="400" font-style="normal" 
>
<path vector-effect="none" fill-rule="evenodd" d="M229,183 L229,224 L280,204 L229,183"/>
</g>

<g fill="none" stroke="#004000" stroke-opacity="1" stroke-width="8" stroke-linecap="round" stroke-linejoin="bevel" transform="matrix(1,0,0,1,0,0)"
font-family="MS Shell Dlg 2" font-size="58.2083" font-weight="400" font-style="normal" 
>
<polyline fill="none" vector-effect="none" points="280,204 331,204 " />
</g>

<g fill="none" stroke="#000000" stroke-opacity="1" stroke-width="1" stroke-linecap="square" stroke-linejoin="bevel" transform="matrix(1,0,0,1,0,0)"
font-family="Arial" font-size="41.656" font-weight="400" font-style="normal" 
>
<text fill="#000000" fill-opacity="1" stroke="none" xml:space="preserve" x="175" y="220" font-family="Arial" font-size="41.656" font-weight="400" font-style="normal" 
 >A</text>
</g>

<g fill="none" stroke="#004000" stroke-opacity="1" stroke-width="8" stroke-linecap="round" stroke-linejoin="bevel" transform="matrix(1,0,0,1,0,0)"
font-family="MS Shell Dlg 2" font-size="58.2083" font-weight="400" font-style="normal" 
>
</g>

<g fill="none" stroke="#004000" stroke-opacity="1" stroke-width="8" stroke-linecap="round" stroke-linejoin="bevel" transform="matrix(1,0,0,1,0,0)"
font-family="MS Shell Dlg 2" font-size="58.2083" font-weight="400" font-style="normal" 
>
<path vector-effect="none" fill-rule="evenodd" d="M229,285 L229,326 L280,305 L229,285"/>
</g>

<g fill="none" stroke="#004000" stroke-opacity="1" stroke-width="8" stroke-linecap="round" stroke-linejoin="bevel" transform="matrix(1,0,0,1,0,0)"
font-family="MS Shell Dlg 2" font-size="58.2083" font-weight="400" font-style="normal" 
>
<polyline fill="none" vector-effect="none" points="280,305 331,305 " />
</g>

<g fill="none" stroke="#000000" stroke-opacity="1" stroke-width="1" stroke-linecap="square" stroke-linejoin="bevel" transform="matrix(1,0,0,1,0,0)"
font-family="Arial" font-size="41.656" font-weight="400" font-style="normal" 
>
<text fill="#000000" fill-opacity="1" stroke="none" xml:space="preserve" x="175" y="321" font-family="Arial" font-size="41.656" font-weight="400" font-style="normal" 
 >B</text>
</g>

<g fill="none" stroke="#004000" stroke-opacity="1" stroke-width="8" stroke-linecap="round" stroke-linejoin="bevel" transform="matrix(1,0,0,1,0,0)"
font-family="MS Shell Dlg 2" font-size="58.2083" font-weight="400" font-style="normal" 
>
</g>

<g fill="#004000" fill-opacity="1" stroke="#004000" stroke-opacity="1" stroke-width="8" stroke-linecap="round" stroke-linejoin="bevel" transform="matrix(1,0,0,1,0,0)"
font-family="MS Shell Dlg 2" font-size="58.2083" font-weight="400" font-style="normal" 
>
<path vector-effect="none" fill-rule="evenodd" d="M442,305 C442,310.523 437.523,315 432,315 C426.477,315 422,310.523 422,305 C422,299.477 426.477,295 432,295 C437.523,295 442,299.477 442,305 "/>
</g>

<g fill="#004000" fill-opacity="1" stroke="#004000" stroke-opacity="1" stroke-width="8" stroke-linecap="round" stroke-linejoin="bevel" transform="matrix(1,0,0,1,0,0)"
font-family="MS Shell Dlg 2" font-size="58.2083" font-weight="400" font-style="normal" 
>
<path vector-effect="none" fill-rule="evenodd" d="M392,204 C392,209.523 387.523,214 382,214 C376.477,214 372,209.523 372,204 C372,198.477 376.477,194 382,194 C387.523,194 392,198.477 392,204 "/>
</g>

<g fill="none" stroke="#004000" stroke-opacity="1" stroke-width="8" stroke-linecap="round" stroke-linejoin="bevel" transform="matrix(1,0,0,1,0,0)"
font-family="MS Shell Dlg 2" font-size="58.2083" font-weight="400" font-style="normal" 
>
<path vector-effect="none" fill-rule="evenodd" d="M1194,590 L1194,631 L1245,610 L1194,590"/>
</g>

<g fill="none" stroke="#004000" stroke-opacity="1" stroke-width="8" stroke-linecap="round" stroke-linejoin="bevel" transform="matrix(1,0,0,1,0,0)"
font-family="MS Shell Dlg 2" font-size="58.2083" font-weight="400" font-style="normal" 
>
<polyline fill="none" vector-effect="none" points="1194,610 1144,610 " />
</g>

<g fill="none" stroke="#000000" stroke-opacity="1" stroke-width="1" stroke-linecap="square" stroke-linejoin="bevel" transform="matrix(1,0,0,1,0,0)"
font-family="Arial" font-size="41.656" font-weight="400" font-style="normal" 
>
<text fill="#000000" fill-opacity="1" stroke="none" xml:space="preserve" x="1271" y="626" font-family="Arial" font-size="41.656" font-weight="400" font-style="normal" 
 >Sum</text>
</g>

<g fill="none" stroke="#004000" stroke-opacity="1" stroke-width="8" stroke-linecap="round" stroke-linejoin="bevel" transform="matrix(1,0,0,1,0,0)"
font-family="MS Shell Dlg 2" font-size="58.2083" font-weight="400" font-style="normal" 
>
</g>

<g fill="none" stroke="#004000" stroke-opacity="1" stroke-width="8" stroke-linecap="round" stroke-linejoin="bevel" transform="matrix(1,0,0,1,0,0)"
font-family="MS Shell Dlg 2" font-size="58.2083" font-weight="400" font-style="normal" 
>
<path vector-effect="none" fill-rule="evenodd" d="M1194,234 L1194,275 L1245,255 L1194,234"/>
</g>

<g fill="none" stroke="#004000" stroke-opacity="1" stroke-width="8" stroke-linecap="round" stroke-linejoin="bevel" transform="matrix(1,0,0,1,0,0)"
font-family="MS Shell Dlg 2" font-size="58.2083" font-weight="400" font-style="normal" 
>
<polyline fill="none" vector-effect="none" points="1194,255 1144,255 " />
</g>

<g fill="none" stroke="#000000" stroke-opacity="1" stroke-width="1" stroke-linecap="square" stroke-linejoin="bevel" transform="matrix(1,0,0,1,0,0)"
font-family="Arial" font-size="41.656" font-weight="400" font-style="normal" 
>
<text fill="#000000" fill-opacity="1" stroke="none" xml:space="preserve" x="1271" y="271" font-family="Arial" font-size="41.656" font-weight="400" font-style="normal" 
 >Cout</text>
</g>

<g fill="none" stroke="#004000" stroke-opacity="1" stroke-width="8" stroke-linecap="round" stroke-linejoin="bevel" transform="matrix(1,0,0,1,0,0)"
font-family="MS Shell Dlg 2" font-size="58.2083" font-weight="400" font-style="normal" 
>
</g>
</g>
</svg>
