<?xml version="1.0" encoding="UTF-8" standalone="no"?>
<svg width="256.6mm" height="180.4mm"
 viewBox="0 0 5132 3608"
 xmlns="http://www.w3.org/2000/svg" xmlns:xlink="http://www.w3.org/1999/xlink"  version="1.2" baseProfile="tiny">
<title>Proteus Design Suite SVG export</title>
<desc>Created by Proteus Design Suite</desc>
<defs>
</defs>
<g fill="none" stroke="black" stroke-width="1" fill-rule="evenodd" stroke-linecap="square" stroke-linejoin="bevel" >

<g fill="#ffffff" fill-opacity="1" stroke="none" transform="matrix(1,0,0,1,0,0)"
font-family="MS Shell Dlg 2" font-size="58.2083" font-weight="400" font-style="normal" 
>
<path vector-effect="non-scaling-stroke" fill-rule="evenodd" d="M0,0 L5132,0 L5132,3608 L0,3608 L0,0"/>
</g>

<g fill="none" stroke="#004000" stroke-opacity="1" stroke-width="8" stroke-linecap="round" stroke-linejoin="bevel" transform="matrix(1,0,0,1,0,0)"
font-family="MS Shell Dlg 2" font-size="58.2083" font-weight="400" font-style="normal" 
>
<path vector-effect="none" fill-rule="evenodd" d="M2058,1499 L2160,1499"/>
</g>

<g fill="none" stroke="#004000" stroke-opacity="1" stroke-width="8" stroke-linecap="round" stroke-linejoin="bevel" transform="matrix(1,0,0,1,0,0)"
font-family="MS Shell Dlg 2" font-size="58.2083" font-weight="400" font-style="normal" 
>
<path vector-effect="none" fill-rule="evenodd" d="M2312,1499 L2160,1499"/>
</g>

<g fill="none" stroke="#004000" stroke-opacity="1" stroke-width="8" stroke-linecap="round" stroke-linejoin="bevel" transform="matrix(1,0,0,1,0,0)"
font-family="MS Shell Dlg 2" font-size="58.2083" font-weight="400" font-style="normal" 
>
<path vector-effect="none" fill-rule="evenodd" d="M2312,2007 L2160,2007 L2160,1499"/>
</g>

<g fill="none" stroke="#004000" stroke-opacity="1" stroke-width="8" stroke-linecap="round" stroke-linejoin="bevel" transform="matrix(1,0,0,1,0,0)"
font-family="MS Shell Dlg 2" font-size="58.2083" font-weight="400" font-style="normal" 
>
<path vector-effect="none" fill-rule="evenodd" d="M2058,1398 L2109,1398"/>
</g>

<g fill="none" stroke="#004000" stroke-opacity="1" stroke-width="8" stroke-linecap="round" stroke-linejoin="bevel" transform="matrix(1,0,0,1,0,0)"
font-family="MS Shell Dlg 2" font-size="58.2083" font-weight="400" font-style="normal" 
>
<path vector-effect="none" fill-rule="evenodd" d="M2312,1398 L2109,1398"/>
</g>

<g fill="none" stroke="#004000" stroke-opacity="1" stroke-width="8" stroke-linecap="round" stroke-linejoin="bevel" transform="matrix(1,0,0,1,0,0)"
font-family="MS Shell Dlg 2" font-size="58.2083" font-weight="400" font-style="normal" 
>
<path vector-effect="none" fill-rule="evenodd" d="M2312,2109 L2109,2109 L2109,1398"/>
</g>

<g fill="none" stroke="#004000" stroke-opacity="1" stroke-width="8" stroke-linecap="round" stroke-linejoin="bevel" transform="matrix(1,0,0,1,0,0)"
font-family="MS Shell Dlg 2" font-size="58.2083" font-weight="400" font-style="normal" 
>
<path vector-effect="none" fill-rule="evenodd" d="M2820,2058 L2871,2058"/>
</g>

<g fill="none" stroke="#004000" stroke-opacity="1" stroke-width="8" stroke-linecap="round" stroke-linejoin="bevel" transform="matrix(1,0,0,1,0,0)"
font-family="MS Shell Dlg 2" font-size="58.2083" font-weight="400" font-style="normal" 
>
<path vector-effect="none" fill-rule="evenodd" d="M2820,1448 L2871,1448"/>
</g>

<g fill="#c8c8aa" fill-opacity="1" stroke="#800000" stroke-opacity="1" stroke-width="8" stroke-linecap="round" stroke-linejoin="bevel" transform="matrix(1,0,0,1,0,0)"
font-family="MS Shell Dlg 2" font-size="58.2083" font-weight="400" font-style="normal" 
>
<path vector-effect="none" fill-rule="evenodd" d="M2718,1448 C2718,1393 2673,1347 2617,1347 L2414,1347 L2414,1550 L2617,1550 C2673,1550 2718,1504 2718,1448 "/>
</g>

<g fill="none" stroke="#800000" stroke-opacity="1" stroke-width="8" stroke-linecap="round" stroke-linejoin="bevel" transform="matrix(1,0,0,1,0,0)"
font-family="MS Shell Dlg 2" font-size="58.2083" font-weight="400" font-style="normal" 
>
<polyline fill="none" vector-effect="none" points="2312,1398 2414,1398 " />
</g>

<g fill="none" stroke="#000000" stroke-opacity="1" stroke-width="1" stroke-linecap="square" stroke-linejoin="bevel" transform="matrix(1,0,0,1,0,0)"
font-family="Arial" font-size="41.656" font-weight="400" font-style="normal" 
>
<text fill="#000000" fill-opacity="1" stroke="none" xml:space="preserve" x="2340" y="1390" font-family="Arial" font-size="41.656" font-weight="400" font-style="normal" 
 >1</text>
</g>

<g fill="none" stroke="#800000" stroke-opacity="1" stroke-width="8" stroke-linecap="round" stroke-linejoin="bevel" transform="matrix(1,0,0,1,0,0)"
font-family="MS Shell Dlg 2" font-size="58.2083" font-weight="400" font-style="normal" 
>
</g>

<g fill="none" stroke="#800000" stroke-opacity="1" stroke-width="8" stroke-linecap="round" stroke-linejoin="bevel" transform="matrix(1,0,0,1,0,0)"
font-family="MS Shell Dlg 2" font-size="58.2083" font-weight="400" font-style="normal" 
>
<polyline fill="none" vector-effect="none" points="2312,1499 2414,1499 " />
</g>

<g fill="none" stroke="#000000" stroke-opacity="1" stroke-width="1" stroke-linecap="square" stroke-linejoin="bevel" transform="matrix(1,0,0,1,0,0)"
font-family="Arial" font-size="41.656" font-weight="400" font-style="normal" 
>
<text fill="#000000" fill-opacity="1" stroke="none" xml:space="preserve" x="2340" y="1491" font-family="Arial" font-size="41.656" font-weight="400" font-style="normal" 
 >2</text>
</g>

<g fill="none" stroke="#800000" stroke-opacity="1" stroke-width="8" stroke-linecap="round" stroke-linejoin="bevel" transform="matrix(1,0,0,1,0,0)"
font-family="MS Shell Dlg 2" font-size="58.2083" font-weight="400" font-style="normal" 
>
</g>

<g fill="none" stroke="#800000" stroke-opacity="1" stroke-width="8" stroke-linecap="round" stroke-linejoin="bevel" transform="matrix(1,0,0,1,0,0)"
font-family="MS Shell Dlg 2" font-size="58.2083" font-weight="400" font-style="normal" 
>
<polyline fill="none" vector-effect="none" points="2820,1448 2718,1448 " />
</g>

<g fill="none" stroke="#000000" stroke-opacity="1" stroke-width="1" stroke-linecap="square" stroke-linejoin="bevel" transform="matrix(1,0,0,1,0,0)"
font-family="Arial" font-size="41.656" font-weight="400" font-style="normal" 
>
<text fill="#000000" fill-opacity="1" stroke="none" xml:space="preserve" x="2769" y="1440" font-family="Arial" font-size="41.656" font-weight="400" font-style="normal" 
 >3</text>
</g>

<g fill="none" stroke="#800000" stroke-opacity="1" stroke-width="8" stroke-linecap="round" stroke-linejoin="bevel" transform="matrix(1,0,0,1,0,0)"
font-family="MS Shell Dlg 2" font-size="58.2083" font-weight="400" font-style="normal" 
>
</g>

<g fill="none" stroke="#000000" stroke-opacity="1" stroke-width="1" stroke-linecap="square" stroke-linejoin="bevel" transform="matrix(1,0,0,1,0,0)"
font-family="Arial" font-size="62.484" font-weight="400" font-style="normal" 
>
<text fill="#000000" fill-opacity="1" stroke="none" xml:space="preserve" x="2410" y="1331" font-family="Arial" font-size="62.484" font-weight="400" font-style="normal" 
 >U22</text>
</g>

<g fill="none" stroke="#800000" stroke-opacity="1" stroke-width="8" stroke-linecap="round" stroke-linejoin="bevel" transform="matrix(1,0,0,1,0,0)"
font-family="MS Shell Dlg 2" font-size="58.2083" font-weight="400" font-style="normal" 
>
</g>

<g fill="none" stroke="#000000" stroke-opacity="1" stroke-width="1" stroke-linecap="square" stroke-linejoin="bevel" transform="matrix(1,0,0,1,0,0)"
font-family="Arial" font-size="41.656" font-weight="400" font-style="normal" 
>
<text fill="#000000" fill-opacity="1" stroke="none" xml:space="preserve" x="2410" y="1594" font-family="Arial" font-size="41.656" font-weight="400" font-style="normal" 
 >AND</text>
</g>

<g fill="none" stroke="#800000" stroke-opacity="1" stroke-width="8" stroke-linecap="round" stroke-linejoin="bevel" transform="matrix(1,0,0,1,0,0)"
font-family="MS Shell Dlg 2" font-size="58.2083" font-weight="400" font-style="normal" 
>
</g>

<g fill="#c8c8aa" fill-opacity="1" stroke="#800000" stroke-opacity="1" stroke-width="8" stroke-linecap="round" stroke-linejoin="bevel" transform="matrix(1,0,0,1,0,0)"
font-family="MS Shell Dlg 2" font-size="58.2083" font-weight="400" font-style="normal" 
>
<path vector-effect="none" fill-rule="evenodd" d="M2708,2058 C2678,1997 2612,1956 2536,1956 L2403,1956 C2434,1956 2454,2002 2454,2058 C2454,2114 2434,2160 2403,2160 L2536,2160 C2612,2160 2678,2119 2708,2058 "/>
</g>

<g fill="none" stroke="#800000" stroke-opacity="1" stroke-width="8" stroke-linecap="round" stroke-linejoin="bevel" transform="matrix(1,0,0,1,0,0)"
font-family="MS Shell Dlg 2" font-size="58.2083" font-weight="400" font-style="normal" 
>
<path vector-effect="none" fill-rule="evenodd" d="M2429,2058 C2429,2012 2409,1977 2378,1967 "/>
</g>

<g fill="none" stroke="#800000" stroke-opacity="1" stroke-width="8" stroke-linecap="round" stroke-linejoin="bevel" transform="matrix(1,0,0,1,0,0)"
font-family="MS Shell Dlg 2" font-size="58.2083" font-weight="400" font-style="normal" 
>
<path vector-effect="none" fill-rule="evenodd" d="M2429,2058 C2429,2104 2409,2139 2378,2149 "/>
</g>

<g fill="none" stroke="#800000" stroke-opacity="1" stroke-width="8" stroke-linecap="round" stroke-linejoin="bevel" transform="matrix(1,0,0,1,0,0)"
font-family="MS Shell Dlg 2" font-size="58.2083" font-weight="400" font-style="normal" 
>
<polyline fill="none" vector-effect="none" points="2403,2007 2419,2007 " />
</g>

<g fill="none" stroke="#800000" stroke-opacity="1" stroke-width="8" stroke-linecap="round" stroke-linejoin="bevel" transform="matrix(1,0,0,1,0,0)"
font-family="MS Shell Dlg 2" font-size="58.2083" font-weight="400" font-style="normal" 
>
<polyline fill="none" vector-effect="none" points="2403,2109 2419,2109 " />
</g>

<g fill="none" stroke="#800000" stroke-opacity="1" stroke-width="8" stroke-linecap="round" stroke-linejoin="bevel" transform="matrix(1,0,0,1,0,0)"
font-family="MS Shell Dlg 2" font-size="58.2083" font-weight="400" font-style="normal" 
>
<polyline fill="none" vector-effect="none" points="2708,2058 2718,2058 " />
</g>

<g fill="none" stroke="#800000" stroke-opacity="1" stroke-width="8" stroke-linecap="round" stroke-linejoin="bevel" transform="matrix(1,0,0,1,0,0)"
font-family="MS Shell Dlg 2" font-size="58.2083" font-weight="400" font-style="normal" 
>
<polyline fill="none" vector-effect="none" points="2312,2007 2414,2007 " />
</g>

<g fill="none" stroke="#800000" stroke-opacity="1" stroke-width="8" stroke-linecap="round" stroke-linejoin="bevel" transform="matrix(1,0,0,1,0,0)"
font-family="MS Shell Dlg 2" font-size="58.2083" font-weight="400" font-style="normal" 
>
<polyline fill="none" vector-effect="none" points="2312,2109 2414,2109 " />
</g>

<g fill="none" stroke="#800000" stroke-opacity="1" stroke-width="8" stroke-linecap="round" stroke-linejoin="bevel" transform="matrix(1,0,0,1,0,0)"
font-family="MS Shell Dlg 2" font-size="58.2083" font-weight="400" font-style="normal" 
>
<polyline fill="none" vector-effect="none" points="2820,2058 2718,2058 " />
</g>

<g fill="none" stroke="#000000" stroke-opacity="1" stroke-width="1" stroke-linecap="square" stroke-linejoin="bevel" transform="matrix(1,0,0,1,0,0)"
font-family="Arial" font-size="62.484" font-weight="400" font-style="normal" 
>
<text fill="#000000" fill-opacity="1" stroke="none" xml:space="preserve" x="2374" y="1940" font-family="Arial" font-size="62.484" font-weight="400" font-style="normal" 
 >U23</text>
</g>

<g fill="none" stroke="#800000" stroke-opacity="1" stroke-width="8" stroke-linecap="round" stroke-linejoin="bevel" transform="matrix(1,0,0,1,0,0)"
font-family="MS Shell Dlg 2" font-size="58.2083" font-weight="400" font-style="normal" 
>
</g>

<g fill="none" stroke="#000000" stroke-opacity="1" stroke-width="1" stroke-linecap="square" stroke-linejoin="bevel" transform="matrix(1,0,0,1,0,0)"
font-family="Arial" font-size="41.656" font-weight="400" font-style="normal" 
>
<text fill="#000000" fill-opacity="1" stroke="none" xml:space="preserve" x="2374" y="2204" font-family="Arial" font-size="41.656" font-weight="400" font-style="normal" 
 >XOR</text>
</g>

<g fill="none" stroke="#800000" stroke-opacity="1" stroke-width="8" stroke-linecap="round" stroke-linejoin="bevel" transform="matrix(1,0,0,1,0,0)"
font-family="MS Shell Dlg 2" font-size="58.2083" font-weight="400" font-style="normal" 
>
</g>

<g fill="none" stroke="#004000" stroke-opacity="1" stroke-width="8" stroke-linecap="round" stroke-linejoin="bevel" transform="matrix(1,0,0,1,0,0)"
font-family="MS Shell Dlg 2" font-size="58.2083" font-weight="400" font-style="normal" 
>
<path vector-effect="none" fill-rule="evenodd" d="M1956,1377 L1956,1418 L2007,1398 L1956,1377"/>
</g>

<g fill="none" stroke="#004000" stroke-opacity="1" stroke-width="8" stroke-linecap="round" stroke-linejoin="bevel" transform="matrix(1,0,0,1,0,0)"
font-family="MS Shell Dlg 2" font-size="58.2083" font-weight="400" font-style="normal" 
>
<polyline fill="none" vector-effect="none" points="2007,1398 2058,1398 " />
</g>

<g fill="none" stroke="#000000" stroke-opacity="1" stroke-width="1" stroke-linecap="square" stroke-linejoin="bevel" transform="matrix(1,0,0,1,0,0)"
font-family="Arial" font-size="41.656" font-weight="400" font-style="normal" 
>
<text fill="#000000" fill-opacity="1" stroke="none" xml:space="preserve" x="1902" y="1414" font-family="Arial" font-size="41.656" font-weight="400" font-style="normal" 
 >A</text>
</g>

<g fill="none" stroke="#004000" stroke-opacity="1" stroke-width="8" stroke-linecap="round" stroke-linejoin="bevel" transform="matrix(1,0,0,1,0,0)"
font-family="MS Shell Dlg 2" font-size="58.2083" font-weight="400" font-style="normal" 
>
</g>

<g fill="none" stroke="#004000" stroke-opacity="1" stroke-width="8" stroke-linecap="round" stroke-linejoin="bevel" transform="matrix(1,0,0,1,0,0)"
font-family="MS Shell Dlg 2" font-size="58.2083" font-weight="400" font-style="normal" 
>
<path vector-effect="none" fill-rule="evenodd" d="M1956,1479 L1956,1520 L2007,1499 L1956,1479"/>
</g>

<g fill="none" stroke="#004000" stroke-opacity="1" stroke-width="8" stroke-linecap="round" stroke-linejoin="bevel" transform="matrix(1,0,0,1,0,0)"
font-family="MS Shell Dlg 2" font-size="58.2083" font-weight="400" font-style="normal" 
>
<polyline fill="none" vector-effect="none" points="2007,1499 2058,1499 " />
</g>

<g fill="none" stroke="#000000" stroke-opacity="1" stroke-width="1" stroke-linecap="square" stroke-linejoin="bevel" transform="matrix(1,0,0,1,0,0)"
font-family="Arial" font-size="41.656" font-weight="400" font-style="normal" 
>
<text fill="#000000" fill-opacity="1" stroke="none" xml:space="preserve" x="1902" y="1515" font-family="Arial" font-size="41.656" font-weight="400" font-style="normal" 
 >B</text>
</g>

<g fill="none" stroke="#004000" stroke-opacity="1" stroke-width="8" stroke-linecap="round" stroke-linejoin="bevel" transform="matrix(1,0,0,1,0,0)"
font-family="MS Shell Dlg 2" font-size="58.2083" font-weight="400" font-style="normal" 
>
</g>

<g fill="#004000" fill-opacity="1" stroke="#004000" stroke-opacity="1" stroke-width="8" stroke-linecap="round" stroke-linejoin="bevel" transform="matrix(1,0,0,1,0,0)"
font-family="MS Shell Dlg 2" font-size="58.2083" font-weight="400" font-style="normal" 
>
<path vector-effect="none" fill-rule="evenodd" d="M2170,1499 C2170,1504.52 2165.52,1509 2160,1509 C2154.48,1509 2150,1504.52 2150,1499 C2150,1493.48 2154.48,1489 2160,1489 C2165.52,1489 2170,1493.48 2170,1499 "/>
</g>

<g fill="#004000" fill-opacity="1" stroke="#004000" stroke-opacity="1" stroke-width="8" stroke-linecap="round" stroke-linejoin="bevel" transform="matrix(1,0,0,1,0,0)"
font-family="MS Shell Dlg 2" font-size="58.2083" font-weight="400" font-style="normal" 
>
<path vector-effect="none" fill-rule="evenodd" d="M2119,1398 C2119,1403.52 2114.52,1408 2109,1408 C2103.48,1408 2099,1403.52 2099,1398 C2099,1392.48 2103.48,1388 2109,1388 C2114.52,1388 2119,1392.48 2119,1398 "/>
</g>

<g fill="none" stroke="#004000" stroke-opacity="1" stroke-width="8" stroke-linecap="round" stroke-linejoin="bevel" transform="matrix(1,0,0,1,0,0)"
font-family="MS Shell Dlg 2" font-size="58.2083" font-weight="400" font-style="normal" 
>
<path vector-effect="none" fill-rule="evenodd" d="M2922,2038 L2922,2078 L2972,2058 L2922,2038"/>
</g>

<g fill="none" stroke="#004000" stroke-opacity="1" stroke-width="8" stroke-linecap="round" stroke-linejoin="bevel" transform="matrix(1,0,0,1,0,0)"
font-family="MS Shell Dlg 2" font-size="58.2083" font-weight="400" font-style="normal" 
>
<polyline fill="none" vector-effect="none" points="2922,2058 2871,2058 " />
</g>

<g fill="none" stroke="#000000" stroke-opacity="1" stroke-width="1" stroke-linecap="square" stroke-linejoin="bevel" transform="matrix(1,0,0,1,0,0)"
font-family="Arial" font-size="41.656" font-weight="400" font-style="normal" 
>
<text fill="#000000" fill-opacity="1" stroke="none" xml:space="preserve" x="2998" y="2074" font-family="Arial" font-size="41.656" font-weight="400" font-style="normal" 
 >Sum</text>
</g>

<g fill="none" stroke="#004000" stroke-opacity="1" stroke-width="8" stroke-linecap="round" stroke-linejoin="bevel" transform="matrix(1,0,0,1,0,0)"
font-family="MS Shell Dlg 2" font-size="58.2083" font-weight="400" font-style="normal" 
>
</g>

<g fill="none" stroke="#004000" stroke-opacity="1" stroke-width="8" stroke-linecap="round" stroke-linejoin="bevel" transform="matrix(1,0,0,1,0,0)"
font-family="MS Shell Dlg 2" font-size="58.2083" font-weight="400" font-style="normal" 
>
<path vector-effect="none" fill-rule="evenodd" d="M2922,1428 L2922,1469 L2972,1448 L2922,1428"/>
</g>

<g fill="none" stroke="#004000" stroke-opacity="1" stroke-width="8" stroke-linecap="round" stroke-linejoin="bevel" transform="matrix(1,0,0,1,0,0)"
font-family="MS Shell Dlg 2" font-size="58.2083" font-weight="400" font-style="normal" 
>
<polyline fill="none" vector-effect="none" points="2922,1448 2871,1448 " />
</g>

<g fill="none" stroke="#000000" stroke-opacity="1" stroke-width="1" stroke-linecap="square" stroke-linejoin="bevel" transform="matrix(1,0,0,1,0,0)"
font-family="Arial" font-size="41.656" font-weight="400" font-style="normal" 
>
<text fill="#000000" fill-opacity="1" stroke="none" xml:space="preserve" x="2998" y="1464" font-family="Arial" font-size="41.656" font-weight="400" font-style="normal" 
 >Cout</text>
</g>

<g fill="none" stroke="#004000" stroke-opacity="1" stroke-width="8" stroke-linecap="round" stroke-linejoin="bevel" transform="matrix(1,0,0,1,0,0)"
font-family="MS Shell Dlg 2" font-size="58.2083" font-weight="400" font-style="normal" 
>
</g>
</g>
</svg>
